<svg id="Слой_1" data-name="Слой 1" xmlns="http://www.w3.org/2000/svg" xmlns:xlink="http://www.w3.org/1999/xlink" viewBox="0 0 1674.08 619.55"><defs><style>.cls-1{fill:url(#Безымянный_градиент_10);}.cls-2{fill:#fff;}.cls-3{fill:url(#Безымянный_градиент_10-2);}.cls-4{fill:url(#Безымянный_градиент_10-3);}</style><linearGradient id="Безымянный_градиент_10" x1="-3.26" y1="129.05" x2="622.81" y2="490.51" gradientUnits="userSpaceOnUse"><stop offset="0" stop-color="#5a86b6"/><stop offset="0.3" stop-color="#00629b"/><stop offset="1" stop-color="#004b88"/></linearGradient><linearGradient id="Безымянный_градиент_10-2" x1="1022.75" y1="244.19" x2="1569.21" y2="790.65" xlink:href="#Безымянный_градиент_10"/><linearGradient id="Безымянный_градиент_10-3" x1="756.83" y1="533.83" x2="1674.08" y2="533.83" xlink:href="#Безымянный_градиент_10"/></defs><rect class="cls-1" width="619.55" height="619.55" rx="168.22"/><path class="cls-2" d="M398,696.86c-29.2,0-58.4.1-87.6-.09a67.28,67.28,0,0,1-16.44-1.95c-17.84-4.62-28.36-16.54-32.35-34.31a49.26,49.26,0,0,1-1-10.65q-.15-80.8-.11-161.62c0-14.06,4.53-26.3,15.41-35.78a43.52,43.52,0,0,1,29-10.84c20.24-.2,40.49-.05,60.73-.05h5.91c5.94,0,6-.05,6-6,0-10.74-.11-21.48.05-32.22.12-8.41,3.76-15,11.65-18.37,12.43-5.27,28.08.76,28.95,16.22.58,10.35.53,20.74.59,31.11.05,10.61-.09,9.25,9.34,9.27,21.14,0,42.28-.27,63.41.13,20.18.38,36.52,12.88,41.88,31.7a45.06,45.06,0,0,1,1.83,12.13q.15,83.23,0,166.46c0,24.61-19.19,42.91-40.6,44-4.64.24-9.28.7-13.92.71-27.59.07-55.18,0-82.77,0ZM479.86,540.4a23.12,23.12,0,0,0-22.35-23.93c-10.89-.55-24.29,8.07-24.37,23.17-.06,13.12,9.78,23.28,22.79,23.47C469.7,563.32,479.66,553.86,479.86,540.4ZM339.63,563.07c12.2.89,23.51-10.24,23.1-23.53s-10.1-22.87-23.24-23c-12.38-.1-23.06,9.05-23.22,23.13C316.1,555.26,328.72,563.87,339.63,563.07Zm-.41,73.08v0c3.75,0,7.51.08,11.26,0,3.38-.1,5.62-1.9,6.87-5.05,2.44-6.13-1.39-12.06-8.28-12.32-6.25-.24-12.52-.08-18.77,0a10.53,10.53,0,0,0-3.14.56c-4.46,1.44-6.38,4.62-5.87,9.53.44,4.29,3.23,7.07,7.74,7.34C332.42,636.31,335.82,636.15,339.22,636.15Zm117.32.12v.05h8.57c.53,0,1.07,0,1.6-.08,5.16-.41,8.43-3.66,8.55-8.45s-3.43-8.72-8.61-9.12c-2.31-.18-4.64-.07-7-.06-4.28,0-8.57-.18-12.84.07-5.58.33-8.58,3.62-8.59,8.92s2.84,8.36,8.64,8.65C450.11,636.4,453.33,636.27,456.54,636.27ZM398,636.15v.11h9.13c.54,0,1.08,0,1.61-.1,4.78-.52,7.45-3.33,7.64-8,.23-5.6-2.85-9.21-8.63-9.42-6.44-.25-12.89-.09-19.34,0a9.76,9.76,0,0,0-3.12.68,8.69,8.69,0,0,0-5.79,9.21c.59,4.34,3.37,7.22,7.77,7.52C390.85,636.34,394.44,636.15,398,636.15Z" transform="translate(-88.39 -230.22)"/><path class="cls-2" d="M553.88,638c-.25-2.72-.6-4.82-.6-6.92q-.09-52.29-.1-104.57c0-6.69.41-7.1,6.92-7,5.74.13,11.42.73,16.7,3.28,11.8,5.69,16.87,15.76,17.14,28.16.41,18.58.45,37.19,0,55.77-.48,19.2-13.15,31.08-32.28,31.22C559.18,638,556.72,638,553.88,638Z" transform="translate(-88.39 -230.22)"/><path class="cls-2" d="M242.5,637.55c-10.44,1.28-19.7.6-27.93-5.28-7.63-5.44-12-13.07-12.17-22.23-.43-20.71-.41-41.45-.08-62.17.24-14.54,11.79-26.41,26.28-27.89a73.38,73.38,0,0,1,10.14-.59c3.4.12,3.94.93,4.17,4.28.08,1.24,0,2.5,0,3.75q0,51.45-.06,102.91C242.89,632.6,242.65,634.87,242.5,637.55Z" transform="translate(-88.39 -230.22)"/><path class="cls-3" d="M867.22,399.72h77.17c83.36,0,137.08,41.48,137.08,135.3s-53.72,137.66-133.63,137.66H867.22ZM940.64,623c46.3,0,77.59-22.7,77.59-88s-31.29-85.62-77.59-85.62H928.93V623ZM1116,568.86c0-69.08,48.64-109,101.21-109s101.21,39.91,101.21,109-48.63,108.85-101.21,108.85S1116,637.8,1116,568.86Zm139.33,0c0-36-12.65-59.3-38.12-59.3s-38.12,23.34-38.12,59.3S1191.71,628,1217.17,628,1255.29,604.82,1255.29,568.86ZM1446,399.72h61.71v273H1446Zm179.46,51.75h-75.13V399.72h212v51.75h-75.13V672.68h-61.72Z" transform="translate(-88.39 -230.22)"/><rect class="cls-4" x="756.83" y="521.83" width="917.25" height="24"/></svg>