<svg xmlns="http://www.w3.org/2000/svg" xmlns:xlink="http://www.w3.org/1999/xlink" viewBox="0 0 619.55 619.55"><defs><style>.cls-1{fill:url(#Безымянный_градиент_10);}.cls-2{fill:#fff;}</style><linearGradient id="Безымянный_градиент_10" x1="-3.26" y1="129.05" x2="622.81" y2="490.51" gradientUnits="userSpaceOnUse"><stop offset="0" stop-color="#5a86b6"/><stop offset="0.3" stop-color="#00629b"/><stop offset="1" stop-color="#004b88"/></linearGradient></defs><g id="Слой_2" data-name="Слой 2"><g id="Слой_1-2" data-name="Слой 1"><rect class="cls-1" width="619.55" height="619.55" rx="168.22"/><path class="cls-2" d="M309.56,466.64c-29.2,0-58.4.1-87.6-.09a67.28,67.28,0,0,1-16.44-1.95c-17.84-4.63-28.36-16.54-32.35-34.31a49.32,49.32,0,0,1-1-10.65Q172,338.84,172,258c0-14,4.53-26.3,15.41-35.78a43.62,43.62,0,0,1,29-10.84c20.24-.19,40.49,0,60.73,0,2,0,3.94,0,5.91,0,5.94,0,6,0,6-6,0-10.73-.11-21.48.05-32.21.11-8.41,3.76-15,11.65-18.37,12.43-5.28,28.08.75,28.95,16.22.58,10.35.53,20.73.58,31.1.06,10.61-.09,9.25,9.35,9.27,21.13.05,42.28-.27,63.41.13,20.18.39,36.52,12.89,41.88,31.71a45.06,45.06,0,0,1,1.83,12.13q.15,83.22,0,166.45c0,24.62-19.19,42.91-40.6,44-4.64.24-9.28.71-13.92.72-27.59.07-55.18,0-82.77,0Zm81.91-156.46a23.12,23.12,0,0,0-22.35-23.93c-10.89-.55-24.29,8.07-24.37,23.16-.07,13.12,9.77,23.28,22.79,23.48C381.31,333.1,391.27,323.64,391.47,310.18ZM251.24,332.85c12.2.88,23.51-10.25,23.1-23.53s-10.1-22.88-23.24-23c-12.38-.1-23.07,9.06-23.22,23.14C227.71,325,240.32,333.64,251.24,332.85Zm-.41,73.07v0c3.75,0,7.51.09,11.26,0,3.38-.1,5.62-1.9,6.87-5.05,2.44-6.14-1.39-12.06-8.28-12.33-6.25-.24-12.52-.07-18.77,0a10.85,10.85,0,0,0-3.14.55c-4.46,1.45-6.39,4.63-5.87,9.53.44,4.29,3.23,7.08,7.74,7.34C244,406.08,247.43,405.92,250.83,405.92Zm117.32.13v.05h8.56c.54,0,1.08,0,1.61-.07,5.15-.42,8.43-3.66,8.55-8.45s-3.43-8.73-8.61-9.13c-2.31-.18-4.64-.06-7-.06-4.28,0-8.57-.17-12.84.08-5.58.33-8.59,3.62-8.6,8.91s2.85,8.37,8.65,8.65C361.72,406.18,364.94,406.05,368.15,406.05Zm-58.52-.13V406h9.13c.54,0,1.08-.05,1.61-.11,4.78-.51,7.45-3.32,7.64-8,.23-5.6-2.85-9.2-8.63-9.42-6.44-.24-12.89-.08-19.34,0a10,10,0,0,0-3.12.68,8.71,8.71,0,0,0-5.79,9.22c.59,4.34,3.37,7.22,7.76,7.51C302.46,406.12,306.05,405.92,309.63,405.92Z"/><path class="cls-2" d="M465.49,407.72c-.25-2.72-.6-4.81-.6-6.91q-.09-52.29-.1-104.58c0-6.68.41-7.1,6.92-7,5.74.13,11.42.74,16.7,3.28,11.8,5.69,16.87,15.76,17.14,28.17.41,18.58.45,37.18,0,55.76-.47,19.21-13.14,31.08-32.27,31.23C470.79,407.74,468.33,407.72,465.49,407.72Z"/><path class="cls-2" d="M154.11,407.32c-10.44,1.28-19.7.6-27.93-5.27-7.63-5.45-12-13.08-12.17-22.23-.43-20.72-.41-41.45-.08-62.17.24-14.55,11.79-26.42,26.28-27.89a75,75,0,0,1,10.14-.6c3.4.13,3.94.94,4.17,4.28.08,1.25,0,2.5,0,3.75q0,51.46-.06,102.92C154.5,402.38,154.26,404.65,154.11,407.32Z"/></g></g></svg>